<svg width="238" height="141" viewBox="0 0 238 141" fill="none" xmlns="http://www.w3.org/2000/svg">
<g filter="url(#filter0_d_23545_149414)">
<g clip-path="url(#clip0_23545_149414)">
<rect x="3.19531" y="3" width="231.549" height="133.34" rx="6.38756" fill="#6ABF4B"/>
<rect x="8.83594" y="8" width="221" height="123" rx="2" fill="#6ABF4B"/>
<g clip-path="url(#clip1_23545_149414)">
<path d="M213.201 73.0853H194.78C193.681 73.0853 192.789 72.1929 192.789 71.0945C192.789 69.9962 193.681 69.1037 194.78 69.1037H209.601L206.254 63.7733C205.853 63.1349 205.846 62.3214 206.24 61.6796L210.098 55.3401H194.78C193.681 55.3401 192.789 54.4477 192.789 53.3493C192.789 52.251 193.681 51.3586 194.78 51.3586H213.641C214.361 51.3586 215.024 51.7464 215.377 52.3745C215.731 53.0026 215.717 53.7715 215.343 54.3859L210.28 62.699L214.89 70.0339C215.274 70.6483 215.298 71.424 214.945 72.0556C214.595 72.6905 213.929 73.0853 213.201 73.0853Z" fill="white"/>
<path d="M40.3204 90.7859H36.0917L34.9247 87.1956H27.9502L26.8141 90.7859H22.582L29.2339 71.7638C29.5257 71.1014 29.8517 70.6449 30.2121 70.3943C30.5725 70.1403 31.0119 70.0133 31.5404 70.0133C32.069 70.0133 32.4878 70.13 32.8104 70.3634C33.133 70.5968 33.4179 71.0636 33.6719 71.7638L40.3238 90.7859H40.3204ZM33.9877 83.7839L31.537 75.5566L28.9696 83.7839H33.9877Z" fill="white"/>
<path d="M55.9853 90.7859H49.8002C47.4662 90.7859 45.7775 90.3328 44.7375 89.4301C43.6975 88.5274 43.1758 87.0515 43.1758 85.0092V70.0133H47.2328V85.0092C47.2328 85.8261 47.4147 86.389 47.7854 86.7014C48.1527 87.0137 48.8254 87.1682 49.7968 87.1682H55.9818V90.7859H55.9853Z" fill="white"/>
<path d="M69.7281 82.7336H73.4933C73.4933 85.3799 72.8309 87.4119 71.5094 88.8294C70.188 90.2504 68.3208 90.9609 65.9079 90.9609C60.598 90.9609 57.9414 87.8375 57.9414 81.594V79.8435C57.9414 74.9216 59.304 71.8393 62.0259 70.5934C63.0968 70.0888 64.3873 69.8348 65.9044 69.8348C68.1217 69.8348 69.9271 70.4424 71.3172 71.6574C72.7073 72.8725 73.4041 74.6298 73.4041 76.9261H69.6114C69.3986 75.7797 69.0176 74.9113 68.4753 74.3278C67.9329 73.7443 67.0749 73.4525 65.9079 73.4525C64.5452 73.4525 63.5361 73.8816 62.8737 74.7362C62.4069 75.3403 62.1357 76.37 62.0568 77.8288C62.019 78.2956 61.9984 78.9271 61.9984 79.7234V81.5323C61.9984 83.7701 62.3108 85.2941 62.932 86.111C63.5739 86.9279 64.5727 87.3363 65.925 87.3363C67.2774 87.3363 68.211 86.9622 68.7258 86.214C69.2407 85.4657 69.577 84.3021 69.7315 82.7267L69.7281 82.7336Z" fill="white"/>
<path d="M92.6915 90.7859H88.4628L87.2958 87.1956H80.3213L79.1852 90.7859H74.9531L81.605 71.7638C81.8967 71.1014 82.2228 70.6449 82.5832 70.3943C82.9436 70.1403 83.383 70.0133 83.9115 70.0133C84.4401 70.0133 84.8589 70.13 85.1815 70.3634C85.5041 70.5968 85.789 71.0636 86.043 71.7638L92.6949 90.7859H92.6915ZM86.3588 83.7839L83.9081 75.5566L81.3407 83.7839H86.3588Z" fill="white"/>
<path d="M111.74 70.0133V88.6853C111.74 89.3271 111.544 89.8763 111.156 90.3328C110.769 90.7893 110.309 91.0192 109.787 91.0192C108.445 91.0192 107.347 90.2401 106.492 88.6853L99.3148 77.4512V90.7859H95.2578V70.0133H99.1673L107.686 83.6088V70.0133H111.74Z" fill="white"/>
<path d="M126.447 82.7336H130.212C130.212 85.3799 129.55 87.4119 128.228 88.8294C126.907 90.2504 125.04 90.9609 122.627 90.9609C117.317 90.9609 114.66 87.8375 114.66 81.594V79.8435C114.66 74.9216 116.023 71.8393 118.745 70.5934C119.816 70.0888 121.106 69.8348 122.623 69.8348C124.84 69.8348 126.646 70.4424 128.036 71.6574C129.426 72.8725 130.123 74.6298 130.123 76.9261H126.33C126.117 75.7797 125.736 74.9113 125.194 74.3278C124.652 73.7443 123.794 73.4525 122.627 73.4525C121.264 73.4525 120.255 73.8816 119.592 74.7362C119.126 75.3403 118.854 76.37 118.776 77.8288C118.738 78.2956 118.717 78.9271 118.717 79.7234V81.5323C118.717 83.7701 119.03 85.2941 119.651 86.111C120.293 86.9279 121.291 87.3363 122.644 87.3363C123.996 87.3363 124.93 86.9622 125.445 86.214C125.959 85.4657 126.296 84.3021 126.45 82.7267L126.447 82.7336Z" fill="white"/>
<path d="M147.338 90.7859H139.985C137.651 90.7859 136.014 90.3843 135.07 89.5742C134.126 88.7676 133.656 87.3432 133.656 85.301V70.0133H147.341V73.631H137.713V78.5049H144.451L144.159 82.1226H137.713V85.0127C137.713 85.8296 137.895 86.3925 138.266 86.7048C138.633 87.0171 139.306 87.1716 140.277 87.1716H147.338V90.7893V90.7859Z" fill="white"/>
<path d="M29.7341 58.3879C29.7341 57.8182 30.3348 57.2793 31.4434 57.2793C32.2329 57.2793 32.7409 57.5642 32.7409 58.2266C32.7409 58.3845 32.7409 58.4154 32.71 58.6076H35.3357C35.3975 58.2266 35.4627 57.9452 35.4627 57.6603C35.4627 56.2702 33.8495 55.5425 31.7935 55.5425C28.9172 55.5425 27.0501 56.9979 27.0501 58.9268C27.0501 62.088 32.0784 61.1407 32.0784 62.723C32.0784 63.3545 31.2547 63.8282 30.1803 63.8282C29.233 63.8282 28.5671 63.4472 28.5671 62.7539C28.5671 62.6578 28.5671 62.5308 28.598 62.3111H26.0032C25.9723 62.6578 25.9414 62.9118 25.9414 63.1658C25.9414 65.033 27.9013 65.5684 29.8646 65.5684C32.9022 65.5684 34.8929 64.2401 34.8929 62.215C34.8929 58.9577 29.7376 60.0973 29.7376 58.3879M48.8077 65.5684C51.5913 65.5684 53.3624 64.144 53.3624 62.4072C53.3624 61.4256 52.9196 60.6361 51.3716 60.3512C52.8269 60.1625 54.0591 59.1499 54.0591 57.7564C54.0591 56.3629 53.0775 55.5425 51.3407 55.5425H46.1853L44.0676 65.5684H48.8111H48.8077ZM62.5954 62.85C62.5954 61.5835 62.3105 60.921 60.7625 60.6361C62.5954 60.5091 63.9237 59.4039 63.9237 57.8834C63.9237 56.586 62.815 55.5425 60.8552 55.5425H55.8268L53.6438 65.5684H56.5201L57.3748 61.6796H58.7031C59.0841 61.6796 59.8083 61.6796 59.8083 62.723C59.8083 63.1967 59.6504 64.525 59.6195 65.5684H62.561C62.5301 64.4941 62.5919 63.6085 62.5919 62.85M38.4283 63.6394L38.9019 61.4874H43.4257L43.8376 59.5584H39.3138L39.7566 57.5024H44.5962L45.008 55.5734H37.3539L35.2019 65.5684H42.9486L43.3605 63.6394H38.4283ZM83.464 55.5734H75.8099L73.6578 65.5684H81.4046L81.8165 63.6394H76.8499L77.2926 61.4874H81.9091L82.321 59.5584H77.7045L78.1473 57.5024H83.0487L83.4606 55.5734H83.464ZM62.561 65.5684H65.3447L66.3572 63.6703H70.0264L70.1843 65.5684H73.0606L71.6705 55.6078H68.2244L62.5645 65.5684H62.561ZM50.0364 57.3136C50.7332 57.3136 51.176 57.6294 51.176 58.3262C51.176 59.0229 50.7023 59.5584 49.7207 59.5584H48.0766L48.5502 57.3136H50.0364ZM57.7832 59.8742L58.2878 57.4063H59.52C59.9628 57.4063 61.0371 57.4063 61.0371 58.4497C61.0371 59.3044 60.3403 59.8742 59.2042 59.8742H57.7798H57.7832ZM69.5493 57.6294H69.5802L69.8959 61.7722H67.3663L69.5493 57.6294ZM49.1509 61.3604C49.5937 61.3604 50.4792 61.4565 50.4792 62.4656C50.4792 63.2241 49.9094 63.7321 48.7699 63.7321H47.1876L47.6921 61.3604H49.1474H49.1509Z" fill="white"/>
<path d="M193.542 92.2136C192.443 92.2136 191.551 91.3212 191.551 90.2229V48.8357C191.551 47.7374 192.443 46.845 193.542 46.845C194.64 46.845 195.532 47.7374 195.532 48.8357V90.2229C195.532 91.3212 194.64 92.2136 193.542 92.2136Z" fill="white"/>
<path d="M181.093 91.8945H177.524C174.668 91.8945 172.348 89.5708 172.348 86.7185V64.4152C172.348 61.5595 174.671 59.2392 177.524 59.2392H181.093C183.949 59.2392 186.269 61.5629 186.269 64.4152V86.7185C186.269 89.5742 183.946 91.8945 181.093 91.8945ZM177.524 63.2207C176.865 63.2207 176.329 63.7562 176.329 64.4152V86.7185C176.329 87.3775 176.865 87.913 177.524 87.913H181.093C181.752 87.913 182.288 87.3775 182.288 86.7185V64.4152C182.288 63.7562 181.752 63.2207 181.093 63.2207H177.524Z" fill="white"/>
<path d="M162.027 91.8945H158.457C155.602 91.8945 153.281 89.5708 153.281 86.7185V80.5368C153.281 77.6811 155.605 75.3609 158.457 75.3609H162.027C164.883 75.3609 167.203 77.6846 167.203 80.5368V86.7185C167.203 89.5742 164.879 91.8945 162.027 91.8945ZM158.457 79.3424C157.798 79.3424 157.263 79.8778 157.263 80.5368V86.7185C157.263 87.3775 157.798 87.9129 158.457 87.9129H162.027C162.686 87.9129 163.221 87.3775 163.221 86.7185V80.5368C163.221 79.8778 162.686 79.3424 162.027 79.3424H158.457Z" fill="white"/>
</g>
<path d="M46.6075 109.592L39.6058 139.933H-170.202L-154.104 109.592H46.6075Z" stroke="white" stroke-width="0.798445"/>
<path d="M197.721 28.151L204.722 -2.18989H414.53L398.432 28.151H197.721Z" stroke="white" stroke-width="0.798445"/>
<g clip-path="url(#clip2_23545_149414)">
<path d="M118.834 122.465L125.021 116.277L126.789 118.045L118.834 126L110.879 118.045L112.646 116.277L118.834 122.465Z" fill="white"/>
</g>
</g>
<rect x="4.69531" y="4.5" width="228.549" height="130.34" rx="4.88756" stroke="#6ABF4B" stroke-width="3"/>
</g>
<defs>
<filter id="filter0_d_23545_149414" x="0.00153422" y="0.604666" width="237.938" height="139.728" filterUnits="userSpaceOnUse" color-interpolation-filters="sRGB">
<feFlood flood-opacity="0" result="BackgroundImageFix"/>
<feColorMatrix in="SourceAlpha" type="matrix" values="0 0 0 0 0 0 0 0 0 0 0 0 0 0 0 0 0 0 127 0" result="hardAlpha"/>
<feOffset dy="0.798445"/>
<feGaussianBlur stdDeviation="1.59689"/>
<feColorMatrix type="matrix" values="0 0 0 0 0.0784314 0 0 0 0 0.180392 0 0 0 0 0.321569 0 0 0 0.2 0"/>
<feBlend mode="normal" in2="BackgroundImageFix" result="effect1_dropShadow_23545_149414"/>
<feBlend mode="normal" in="SourceGraphic" in2="effect1_dropShadow_23545_149414" result="shape"/>
</filter>
<clipPath id="clip0_23545_149414">
<rect x="3.19531" y="3" width="231.549" height="133.34" rx="6.38756" fill="white"/>
</clipPath>
<clipPath id="clip1_23545_149414">
<rect width="193.05" height="45.3687" fill="white" transform="translate(22.582 46.845)"/>
</clipPath>
<clipPath id="clip2_23545_149414">
<rect width="30" height="30" fill="white" transform="translate(103.836 106)"/>
</clipPath>
</defs>
</svg>
