<svg width="239" height="141" viewBox="0 0 239 141" fill="none" xmlns="http://www.w3.org/2000/svg">
<g filter="url(#filter0_d_23545_149413)">
<g clip-path="url(#clip0_23545_149413)">
<rect x="3.64844" y="3" width="231.549" height="133.34" rx="6.38756" fill="#00A7E1"/>
<rect x="9" y="8" width="221" height="123" rx="2" fill="#00A7E1"/>
<g clip-path="url(#clip1_23545_149413)">
<path d="M65.2178 71.9429H56.7423C55.7533 71.9429 55.0623 72.1321 54.6651 72.5146C54.2719 72.897 54.0733 73.5515 54.0733 74.4939V77.8098H62.8864L62.5488 81.9655H54.0773V91.653H49.3828V72.6486C49.3828 70.8862 49.772 69.6324 50.5465 68.8951C51.321 68.1578 52.6555 67.7871 54.546 67.7871H65.2138V71.9429H65.2178Z" fill="white"/>
<path d="M84.4668 91.649H79.5737L78.2234 87.5249H70.153L68.8384 91.649H63.9453L71.6424 69.798C71.98 69.037 72.3533 68.5126 72.7743 68.2248C73.1913 67.933 73.7037 67.7871 74.3113 67.7871C74.919 67.7871 75.4075 67.9212 75.7808 68.1893C76.1542 68.4574 76.4838 68.9936 76.7777 69.798L84.4748 91.649H84.4668ZM77.1431 83.6057L74.3073 74.1548L71.3366 83.6057H77.1431Z" fill="white"/>
<path d="M98.619 82.3992H102.972C102.972 85.2144 102.317 87.4263 100.998 89.0349C99.6834 90.6436 97.8088 91.5583 95.3782 91.7831L95.1081 92.4534C96.1884 92.7412 96.7285 93.3641 96.7285 94.3144C96.7285 95.2646 96.4068 96.0137 95.7674 96.5618C95.128 97.1098 94.143 97.3819 92.8125 97.3819C92.5226 97.3819 91.9904 97.3385 91.2278 97.2478L91.9387 95.5406C92.3438 95.6076 92.737 95.6392 93.1183 95.6392C94.0437 95.6392 94.5044 95.2922 94.5044 94.5982C94.5044 93.8373 93.8491 93.4588 92.5464 93.4588L93.1898 91.8146C87.7208 91.4322 84.9844 87.86 84.9844 81.0902V79.0793C84.9844 73.4253 86.5611 69.8847 89.7106 68.4535C90.9458 67.8739 92.4431 67.5821 94.1986 67.5821C96.7643 67.5821 98.8534 68.28 100.462 69.6757C102.07 71.0715 102.877 73.0902 102.877 75.7279H98.488C98.2378 74.411 97.8009 73.4135 97.1734 72.7432C96.5419 72.073 95.5529 71.7378 94.2026 71.7378C92.6258 71.7378 91.4582 72.2307 90.6916 73.2124C90.1515 73.9064 89.8338 75.0892 89.7464 76.7649C89.6987 77.3011 89.6789 78.0266 89.6789 78.9413V81.0192C89.6789 83.5899 90.0403 85.3405 90.7592 86.2789C91.5019 87.2173 92.6536 87.6865 94.2224 87.6865C95.7912 87.6865 96.8675 87.2567 97.4633 86.3972C98.059 85.5377 98.4483 84.201 98.627 82.3913L98.619 82.3992Z" fill="white"/>
<path d="M124.436 91.649H119.542L118.192 87.5249H110.122L108.807 91.649H103.914L111.611 69.798C111.949 69.037 112.322 68.5126 112.743 68.2248C113.16 67.933 113.672 67.7871 114.28 67.7871C114.888 67.7871 115.376 67.9212 115.75 68.1893C116.123 68.4574 116.453 68.9936 116.746 69.798L124.444 91.649H124.436ZM117.112 83.6057L114.276 74.1548L111.305 83.6057H117.112Z" fill="white"/>
<path d="M53.7754 54.4328C53.7754 53.7783 54.4704 53.1593 55.7533 53.1593C56.6667 53.1593 57.2546 53.4865 57.2546 54.2475C57.2546 54.4289 57.2546 54.4643 57.2188 54.6851H60.2571C60.3286 54.2475 60.4041 53.9242 60.4041 53.5969C60.4041 52.0001 58.5374 51.1642 56.1584 51.1642C52.8301 51.1642 50.6696 52.836 50.6696 55.0518C50.6696 58.6832 56.488 57.5949 56.488 59.4126C56.488 60.1381 55.5348 60.6822 54.2917 60.6822C53.1955 60.6822 52.425 60.2445 52.425 59.4481C52.425 59.3377 52.425 59.1918 52.4608 58.9394H49.4582C49.4225 59.3377 49.3867 59.6294 49.3867 59.9212C49.3867 62.0661 51.6545 62.6812 53.9263 62.6812C57.4412 62.6812 59.7448 61.1553 59.7448 58.829C59.7448 55.0873 53.7794 56.3963 53.7794 54.4328M75.8458 62.6812C79.0668 62.6812 81.1162 61.0449 81.1162 59.0498C81.1162 57.9222 80.6039 57.0153 78.8127 56.6881C80.4966 56.4712 81.9225 55.3081 81.9225 53.7073C81.9225 52.1065 80.7866 51.1642 78.7769 51.1642H72.8115L70.361 62.6812H75.8498H75.8458ZM91.7999 59.5585C91.7999 58.1036 91.4703 57.3426 89.6791 57.0153C91.8 56.8695 93.337 55.5999 93.337 53.8532C93.337 52.3628 92.0541 51.1642 89.7863 51.1642H83.9679L81.4419 62.6812H84.7701L85.7591 58.214H87.2961C87.737 58.214 88.575 58.214 88.575 59.4126C88.575 59.9567 88.3923 61.4826 88.3565 62.6812H91.7602C91.7245 61.4471 91.796 60.4298 91.796 59.5585M63.8356 60.4653L64.3837 57.9932H69.6183L70.0949 55.7773H64.8603L65.3726 53.4156H70.9726L71.4492 51.1997H62.5924L60.1022 62.6812H69.0662L69.5428 60.4653H63.8356ZM115.948 51.1997H107.091L104.601 62.6812H113.565L114.041 60.4653H108.294L108.807 57.9932H114.148L114.625 55.7773H109.283L109.795 53.4156H115.467L115.944 51.1997H115.948ZM91.7602 62.6812H94.9812L96.1529 60.5008H100.399L100.581 62.6812H103.91L102.301 51.2391H98.3134L91.7642 62.6812H91.7602ZM77.2677 53.1987C78.0739 53.1987 78.5863 53.5614 78.5863 54.3618C78.5863 55.1622 78.0382 55.7773 76.9023 55.7773H74.9999L75.548 53.1987H77.2677ZM86.2317 56.14L86.8155 53.3052H88.2414C88.7537 53.3052 89.9968 53.3052 89.9968 54.5038C89.9968 55.4855 89.1906 56.14 87.876 56.14H86.2277H86.2317ZM99.8465 53.5614H99.8823L100.248 58.3204H97.3205L99.8465 53.5614ZM76.243 57.8473C76.7553 57.8473 77.78 57.9577 77.78 59.1169C77.78 59.9882 77.1207 60.5718 75.8022 60.5718H73.9712L74.555 57.8473H76.239H76.243Z" fill="white"/>
<path d="M158.59 101.139C141.071 101.139 126.82 86.9926 126.82 69.6008C126.82 52.2091 141.075 38.0623 158.59 38.0623C159.86 38.0623 160.893 39.0874 160.893 40.3491C160.893 41.6108 159.86 42.6359 158.59 42.6359C143.612 42.6359 131.427 54.7325 131.427 69.6008C131.427 84.4692 143.612 96.5657 158.59 96.5657C173.567 96.5657 185.752 84.4692 185.752 69.6008C185.752 68.3391 186.784 67.314 188.055 67.314C189.326 67.314 190.359 68.3391 190.359 69.6008C190.359 86.9926 176.108 101.139 158.59 101.139Z" fill="white"/>
<path d="M156.552 81.307H156.528C155.913 81.2991 155.325 81.0507 154.9 80.613L142.766 68.1932C141.881 67.2863 141.905 65.8393 142.818 64.9601C143.731 64.0808 145.189 64.1045 146.075 65.0113L156.588 75.7752L186.784 46.1568C187.69 45.2697 189.147 45.2775 190.041 46.1765C190.934 47.0755 190.927 48.5225 190.021 49.4096L158.168 80.6525C157.735 81.0743 157.156 81.3109 156.548 81.3109L156.552 81.307Z" fill="white"/>
</g>
<path d="M47.0607 109.592L40.0589 139.933H-169.749L-153.65 109.592H47.0607Z" stroke="white" stroke-width="0.798445"/>
<path d="M198.174 28.151L205.175 -2.18989H414.983L398.885 28.151H198.174Z" stroke="white" stroke-width="0.798445"/>
<g clip-path="url(#clip2_23545_149413)">
<path d="M118.998 122.465L125.185 116.277L126.953 118.045L118.998 126L111.043 118.045L112.81 116.277L118.998 122.465Z" fill="white"/>
</g>
</g>
<rect x="5.14844" y="4.5" width="228.549" height="130.34" rx="4.88756" stroke="#00A7E1" stroke-width="3"/>
</g>
<defs>
<filter id="filter0_d_23545_149413" x="0.454659" y="0.604666" width="237.938" height="139.728" filterUnits="userSpaceOnUse" color-interpolation-filters="sRGB">
<feFlood flood-opacity="0" result="BackgroundImageFix"/>
<feColorMatrix in="SourceAlpha" type="matrix" values="0 0 0 0 0 0 0 0 0 0 0 0 0 0 0 0 0 0 127 0" result="hardAlpha"/>
<feOffset dy="0.798445"/>
<feGaussianBlur stdDeviation="1.59689"/>
<feColorMatrix type="matrix" values="0 0 0 0 0.0784314 0 0 0 0 0.180392 0 0 0 0 0.321569 0 0 0 0.2 0"/>
<feBlend mode="normal" in2="BackgroundImageFix" result="effect1_dropShadow_23545_149413"/>
<feBlend mode="normal" in="SourceGraphic" in2="effect1_dropShadow_23545_149413" result="shape"/>
</filter>
<clipPath id="clip0_23545_149413">
<rect x="3.64844" y="3" width="231.549" height="133.34" rx="6.38756" fill="white"/>
</clipPath>
<clipPath id="clip1_23545_149413">
<rect width="141.325" height="63.0771" fill="white" transform="translate(49.3828 38.0623)"/>
</clipPath>
<clipPath id="clip2_23545_149413">
<rect width="30" height="30" fill="white" transform="translate(104 106)"/>
</clipPath>
</defs>
</svg>
