<svg width="239" height="141" viewBox="0 0 239 141" fill="none" xmlns="http://www.w3.org/2000/svg">
<g filter="url(#filter0_d_23545_149412)">
<g clip-path="url(#clip0_23545_149412)">
<rect x="4.09766" y="3" width="231.549" height="133.34" rx="6.38756" fill="#FFB71B"/>
<rect x="10" y="8" width="221" height="123" rx="2" fill="#FFB71B"/>
<path d="M56.8951 87.1179C56.8951 89.4276 56.0527 91.2406 54.3721 92.557C52.6874 93.8734 50.5414 94.5315 47.9261 94.5315C45.8563 94.5315 43.8588 93.9582 41.9254 92.8154C40.9707 92.2218 40.1885 91.3779 39.5748 90.2917C38.9611 89.2055 38.6562 87.9618 38.6562 86.5687L42.9522 86.3628C42.9522 87.5984 43.4737 88.5594 44.5206 89.2459C45.5675 89.9323 46.7227 90.2755 47.9983 90.2755C50.8382 90.2755 52.2582 89.2701 52.2582 87.2552C52.2582 85.6077 51.2955 84.6345 49.3621 84.3357L45.4071 83.9239C43.4296 83.6291 41.8612 82.9184 40.7019 81.7959C39.5427 80.6733 38.9651 79.0622 38.9651 76.9544C38.9651 74.8466 39.7954 73.1102 41.452 71.7373C43.1087 70.3644 45.2065 69.678 47.7416 69.678C50.2766 69.678 52.3143 70.3241 53.8626 71.6162C55.411 72.9083 56.1811 74.572 56.1811 76.6111L51.9533 76.8171C51.5682 74.8264 50.2365 73.829 47.9662 73.829C46.5783 73.829 45.4953 74.1278 44.7091 74.7214C43.9229 75.315 43.5338 76.0216 43.5338 76.8332C43.5338 77.6448 43.8186 78.2869 44.3882 78.7553C44.9538 79.2237 45.6598 79.5185 46.5021 79.6315L50.389 80.0434C54.7291 80.637 56.8991 82.9951 56.8991 87.1138L56.8951 87.1179Z" fill="white"/>
<path d="M76.6722 94.3256H68.0802C65.3526 94.3256 63.4393 93.8531 62.3362 92.9002C61.2331 91.9513 60.6836 90.2755 60.6836 87.8729V69.8879H76.6762V74.1439H65.4248V79.8778H73.2988L72.9578 84.1338H65.4248V87.5337C65.4248 88.4948 65.6374 89.157 66.0706 89.5244C66.4998 89.8919 67.286 90.0736 68.4212 90.0736H76.6722V94.3296V94.3256Z" fill="white"/>
<path d="M93.7167 69.8879V85.6076C93.7167 88.8784 93.0468 91.184 91.7071 92.5246C90.3673 93.8652 88.4219 94.5355 85.8748 94.5355C84.2382 94.5355 82.8664 94.3175 81.7674 93.8814C80.6643 93.4493 79.6494 92.7629 78.7148 91.822L81.3743 88.9066C81.7633 89.2983 82.345 89.6214 83.1312 89.8838C83.9133 90.1463 84.8118 90.2795 85.8267 90.2795C86.8415 90.2795 87.6157 90.0332 88.1612 89.5406C88.7067 89.048 88.9795 88.1273 88.9795 86.7786V69.892H93.7207L93.7167 69.8879Z" fill="white"/>
<path d="M117.144 94.3256H112.202L110.838 90.1019H102.688L101.36 94.3256H96.4141L104.188 71.9473C104.529 71.1679 104.91 70.6309 105.331 70.3361C105.752 70.0373 106.266 69.8879 106.883 69.8879C107.501 69.8879 107.99 70.0252 108.367 70.2998C108.744 70.5744 109.077 71.1235 109.374 71.9473L117.148 94.3256H117.144ZM109.743 86.0882L106.879 76.4092L103.879 86.0882H109.743Z" fill="white"/>
<path d="M43.0886 56.2115C43.0886 55.5412 43.7906 54.9073 45.0862 54.9073C46.0087 54.9073 46.6024 55.2424 46.6024 56.0217C46.6024 56.2075 46.6024 56.2438 46.5663 56.4699H49.6349C49.7071 56.0217 49.7833 55.6906 49.7833 55.3555C49.7833 53.7201 47.898 52.864 45.4953 52.864C42.1339 52.864 39.9519 54.5761 39.9519 56.8455C39.9519 60.5644 45.8282 59.4499 45.8282 61.3114C45.8282 62.0544 44.8656 62.6116 43.6101 62.6116C42.503 62.6116 41.7248 62.1634 41.7248 61.3478C41.7248 61.2347 41.7248 61.0853 41.7609 60.8269H38.7284C38.6923 61.2347 38.6562 61.5335 38.6562 61.8323C38.6562 64.029 40.9466 64.6589 43.241 64.6589C46.7909 64.6589 49.1174 63.0962 49.1174 60.7138C49.1174 56.8818 43.0926 58.2224 43.0926 56.2115M65.3787 64.6589C68.6318 64.6589 70.7016 62.9831 70.7016 60.9399C70.7016 59.7851 70.1841 58.8564 68.3751 58.5212C70.0758 58.2991 71.5159 57.1079 71.5159 55.4685C71.5159 53.8291 70.3687 52.864 68.339 52.864H62.3142L59.8393 64.6589H65.3828H65.3787ZM81.4917 61.4608C81.4917 59.9708 81.1587 59.1915 79.3497 58.8564C81.4917 58.707 83.044 57.4067 83.044 55.6179C83.044 54.0916 81.7484 52.864 79.458 52.864H73.5816L71.0305 64.6589H74.3919L75.3907 60.0839H76.943C77.3882 60.0839 78.2346 60.0839 78.2346 61.3114C78.2346 61.8687 78.0501 63.4314 78.014 64.6589H81.4516C81.4155 63.395 81.4877 62.3532 81.4877 61.4608M53.2489 62.3896L53.8025 59.8578H59.0892L59.5706 57.5884H54.2838L54.8013 55.1697H60.457L60.9384 52.9004H51.9934L49.4784 64.6589H58.5317L59.013 62.3896H53.2489ZM105.88 52.9004H96.9347L94.4197 64.6589H103.473L103.954 62.3896H98.1501L98.6676 59.8578H104.063L104.544 57.5884H99.1489L99.6663 55.1697H105.394L105.876 52.9004H105.88ZM81.4516 64.6589H84.7046L85.8879 62.4259H90.1759L90.3604 64.6589H93.7218L92.0972 52.9408H88.07L81.4556 64.6589H81.4516ZM66.8148 54.9476C67.629 54.9476 68.1465 55.3191 68.1465 56.1388C68.1465 56.9585 67.5929 57.5884 66.4457 57.5884H64.5244L65.0779 54.9476H66.8148ZM75.868 57.9599L76.4576 55.0567H77.8977C78.4151 55.0567 79.6706 55.0566 79.6706 56.2842C79.6706 57.2896 78.8563 57.9599 77.5286 57.9599H75.864H75.868ZM89.6183 55.3191H89.6544L90.0234 60.1929H87.0672L89.6183 55.3191ZM65.7799 59.7084C66.2973 59.7084 67.3322 59.8214 67.3322 61.0086C67.3322 61.901 66.6663 62.4986 65.3346 62.4986H63.4855L64.0751 59.7084H65.7759H65.7799Z" fill="white"/>
<path d="M147.38 84.7719C147.38 84.7719 147.372 84.8042 147.368 84.8203C147.497 84.8405 147.629 84.8445 147.757 84.8728C148.022 84.1258 148.315 83.3909 148.64 82.6762C147.97 82.5025 147.28 82.3854 146.566 82.3612C144.689 82.3006 142.739 82.2845 140.754 82.2966C142.194 82.3047 143.642 82.3168 145.118 82.3612C146.402 82.4016 147.412 83.4797 147.372 84.7719H147.38Z" fill="white"/>
<path d="M139.779 86.9685L139.719 86.9927C140.072 86.9927 140.429 86.9765 140.778 86.9765C140.445 86.9765 140.108 86.9644 139.779 86.9644V86.9685Z" fill="white"/>
<path d="M147.368 84.8203C147.304 86.0479 146.329 86.9847 145.098 87.0251C145.535 87.0372 145.988 87.0331 146.417 87.0453C146.642 87.0533 146.855 87.0977 147.071 87.1341C147.264 86.3669 147.496 85.6158 147.757 84.8728C147.629 84.8446 147.496 84.8405 147.368 84.8203Z" fill="white"/>
<path d="M140.777 86.9807C141.114 86.9807 141.459 86.9928 141.796 86.9968L141.736 86.9726C141.419 86.9726 141.094 86.9807 140.773 86.9807H140.777Z" fill="white"/>
<path d="M134.148 84.8204C134.148 84.8204 134.136 84.7881 134.136 84.7719C134.096 83.4798 135.107 82.3976 136.39 82.3612C137.866 82.3168 139.318 82.3047 140.754 82.2966C138.773 82.2886 136.819 82.3007 134.942 82.3612C129.804 82.5308 125.62 86.7868 125.424 92.0483C125.375 93.3404 126.374 94.4307 127.662 94.4791C127.69 94.4791 127.722 94.4791 127.75 94.4791C128.993 94.4791 130.024 93.4898 130.073 92.2259C130.089 91.8222 130.157 91.4345 130.253 91.059L127.746 92.1371C127.886 88.4424 130.59 85.3736 134.14 84.8204H134.148Z" fill="white"/>
<path d="M145.096 87.0251C143.989 87.0009 142.881 86.9726 141.738 86.9726L141.798 86.9968C142.857 87.0089 143.904 87.013 144.983 87.0453C145.023 87.0453 145.056 87.0251 145.096 87.0251Z" fill="white"/>
<path d="M141.735 86.9725L140.752 86.5525L139.773 86.9725C140.102 86.9725 140.439 86.9805 140.772 86.9846C141.093 86.9846 141.418 86.9765 141.735 86.9765V86.9725Z" fill="white"/>
<path d="M134.137 84.7718C134.137 84.7718 134.145 84.8041 134.149 84.8203C134.438 84.7759 134.722 84.7153 135.023 84.7032C136.933 84.6386 138.846 84.6265 140.759 84.6345C142.673 84.6265 144.586 84.6386 146.495 84.7032C146.796 84.7113 147.081 84.7759 147.37 84.8203C147.37 84.8041 147.382 84.788 147.382 84.7718C147.422 83.4797 146.411 82.3975 145.127 82.3612C143.651 82.3168 142.203 82.3046 140.763 82.2966C139.323 82.3046 137.875 82.3168 136.399 82.3612C135.115 82.4016 134.105 83.4797 134.145 84.7718H134.137Z" fill="white"/>
<path d="M147.368 84.8204C147.079 84.776 146.795 84.7154 146.494 84.7033C144.584 84.6387 142.671 84.6266 140.758 84.6347C142.19 84.6427 143.622 84.6589 145.054 84.7033L140.758 86.5486L141.741 86.9686C142.884 86.9686 143.991 86.9969 145.098 87.0211C146.329 86.9807 147.308 86.0479 147.368 84.8164V84.8204Z" fill="white"/>
<path d="M135.098 87.0453C135.524 87.0331 135.977 87.0331 136.406 87.0251C135.171 87.013 134.208 86.0479 134.148 84.8203C130.598 85.3735 127.894 88.4464 127.754 92.1371L130.261 91.059C130.839 88.8058 132.78 87.1179 135.102 87.0412L135.098 87.0453Z" fill="white"/>
<path d="M140.759 84.6347C138.846 84.6266 136.932 84.6387 135.023 84.7033C134.722 84.7114 134.437 84.776 134.148 84.8204C134.209 86.0439 135.171 87.009 136.407 87.0251C137.518 86.9969 138.629 86.9726 139.78 86.9726L140.759 86.5527L136.463 84.7073C137.895 84.6629 139.327 84.6468 140.759 84.6387V84.6347Z" fill="white"/>
<path d="M140.757 84.6346C139.325 84.6427 137.893 84.6588 136.461 84.7032L140.757 86.5486L145.053 84.7032C143.621 84.6588 142.189 84.6427 140.757 84.6346Z" fill="white"/>
<path d="M141.48 78.7635H141.5C145.852 78.7554 149.382 75.1738 149.374 70.7805C149.37 68.6484 148.54 66.6416 147.035 65.1395C145.539 63.6414 143.602 62.8055 141.456 62.8338C137.108 62.8499 133.578 66.4356 133.586 70.8209C133.59 72.9489 134.416 74.9476 135.908 76.4457C137.397 77.9398 139.378 78.7635 141.484 78.7635H141.48ZM141.464 65.1758C144.536 65.1637 147.039 67.6793 147.047 70.7885C147.056 73.8978 144.573 76.4174 141.496 76.4255C138.415 76.4336 135.92 73.9301 135.912 70.8209C135.904 67.7116 138.383 65.192 141.464 65.1798V65.1758Z" fill="white"/>
<path d="M141.498 76.4215C144.578 76.4134 147.057 73.8978 147.049 70.7845C147.041 67.6793 144.538 65.1597 141.466 65.1718C138.385 65.1839 135.906 67.7036 135.914 70.8128C135.922 73.922 138.413 76.4255 141.498 76.4174V76.4215ZM141.478 67.5178C142.336 67.5703 143.146 67.8489 143.76 68.4627C144.382 69.0845 144.723 69.9123 144.727 70.7926C144.731 72.6016 143.283 74.0754 141.498 74.0795H141.49C140.623 74.0795 139.813 73.7443 139.203 73.1306C138.59 72.5127 138.253 71.693 138.249 70.8128C138.245 69.0038 139.697 67.5259 141.482 67.5218L141.478 67.5178Z" fill="white"/>
<path d="M201.469 89.3185C199.872 79.0743 191.834 70.4048 183.547 69.997C179.716 69.8112 177.763 69.7668 174.06 69.7951C170.334 69.7668 168.372 69.8072 164.538 69.997C158.132 70.3119 151.886 75.5734 148.637 82.6761C149.395 82.874 150.105 83.1768 150.783 83.5443C153.76 77.0795 159.379 72.5974 164.65 72.339C168.396 72.1532 170.29 72.1128 174.04 72.1411C177.791 72.1128 179.684 72.1573 183.43 72.339C190.245 72.6741 197.666 80.0636 199.166 89.6819C199.519 91.9513 197.758 94.0066 195.476 94.0066H155.083C154.726 94.265 154.317 94.4588 153.844 94.475C153.816 94.475 153.784 94.475 153.756 94.475C153.234 94.475 152.773 94.2731 152.384 93.9783C150.334 93.8572 148.782 92.0886 148.898 90.0413L146.66 89.0803C146.648 89.157 146.628 89.2337 146.616 89.3145C146.343 91.071 146.844 92.8517 147.996 94.2085C149.151 95.5693 150.832 96.3486 152.604 96.3486H195.476C197.249 96.3486 198.93 95.5693 200.085 94.2085C201.236 92.8558 201.737 91.071 201.465 89.3145L201.469 89.3185Z" fill="white"/>
<path d="M148.914 89.6821C149.003 89.1289 149.111 88.5838 149.235 88.0427C148.602 87.5743 147.864 87.2674 147.065 87.1301C146.905 87.7721 146.768 88.4263 146.66 89.0845L148.898 90.0455C148.906 89.9244 148.898 89.8032 148.914 89.678V89.6821Z" fill="white"/>
<path d="M152.391 93.9865C152.78 94.2813 153.241 94.4831 153.763 94.4831C153.791 94.4831 153.823 94.4831 153.851 94.4831C154.324 94.467 154.733 94.2732 155.09 94.0147H152.607C152.531 94.0147 152.463 93.9946 152.387 93.9905L152.391 93.9865Z" fill="white"/>
<path d="M149.916 85.7207C150.172 84.9737 150.465 84.2469 150.79 83.5442C150.112 83.1768 149.402 82.8739 148.644 82.6761C148.319 83.3908 148.022 84.1217 147.762 84.8727C148.536 85.0342 149.254 85.3331 149.92 85.7207H149.916Z" fill="white"/>
<path d="M147.76 84.8728C147.499 85.6117 147.267 86.3668 147.074 87.1341C147.872 87.2673 148.611 87.5782 149.244 88.0466C149.429 87.2512 149.657 86.4799 149.918 85.7248C149.252 85.3372 148.534 85.0384 147.76 84.8768V84.8728Z" fill="white"/>
<path d="M151.436 92.226C151.42 91.8222 151.351 91.4346 151.255 91.0591L148.901 90.0455C148.784 92.0887 150.337 93.8574 152.386 93.9825C151.845 93.5747 151.46 92.9609 151.432 92.226H151.436Z" fill="white"/>
<path d="M164.768 74.6769C167.829 74.5275 169.606 74.471 172.145 74.471C172.734 74.471 173.364 74.471 174.062 74.4791C177.732 74.4508 179.549 74.4872 183.32 74.6729C188.751 74.9394 195.49 81.178 196.87 90.0413C196.954 90.5905 196.705 90.9822 196.549 91.1639C196.388 91.3496 196.039 91.6646 195.478 91.6646H156.032C156.04 91.7938 156.076 91.9149 156.084 92.0482C156.116 92.8639 155.699 93.5665 155.085 94.0066H195.478C197.76 94.0066 199.521 91.9513 199.168 89.682C197.668 80.0636 190.247 72.6741 183.432 72.339C179.686 72.1532 177.796 72.1129 174.042 72.1411C170.292 72.1129 168.398 72.1573 164.652 72.339C159.381 72.5974 153.765 77.0836 150.785 83.5443C151.483 83.9198 152.129 84.3761 152.715 84.9051C155.346 78.8603 160.46 74.891 164.764 74.6769H164.768Z" fill="white"/>
<path d="M149.239 88.0426C149.115 88.5796 149.003 89.1248 148.918 89.682C148.898 89.8072 148.91 89.9243 148.902 90.0495L151.257 91.063C150.94 89.8274 150.218 88.7694 149.239 88.0466V88.0426Z" fill="white"/>
<path d="M151.839 87.3198C152.088 86.4839 152.381 85.6763 152.718 84.9051C152.132 84.3761 151.486 83.9198 150.788 83.5443C150.464 84.2469 150.171 84.9737 149.914 85.7208C150.644 86.1447 151.29 86.6818 151.843 87.3198H151.839Z" fill="white"/>
<path d="M156.087 92.0483C156.083 91.9191 156.047 91.7939 156.035 91.6647H153.701C153.717 91.8222 153.757 91.9756 153.761 92.1371L152.662 91.6647H152.606C152.064 91.6647 151.723 91.378 151.559 91.1882L151.254 91.059C151.35 91.4345 151.418 91.8222 151.434 92.226C151.462 92.9609 151.844 93.5746 152.389 93.9825C152.461 93.9865 152.533 94.0067 152.61 94.0067H155.093C155.706 93.5625 156.119 92.8639 156.091 92.0483H156.087Z" fill="white"/>
<path d="M153.763 92.1371C153.755 91.9756 153.715 91.8262 153.703 91.6646H152.668L153.767 92.1371H153.763Z" fill="white"/>
<path d="M151.256 91.0629L151.561 91.1922C151.561 91.1922 151.545 91.176 151.537 91.1679C151.38 90.9822 151.132 90.5945 151.216 90.0454C151.364 89.1045 151.581 88.196 151.842 87.3198C151.292 86.6818 150.642 86.1447 149.912 85.7207C149.651 86.4758 149.423 87.2471 149.238 88.0426C150.213 88.7653 150.939 89.8273 151.256 91.0589V91.0629Z" fill="white"/>
<path d="M174.049 66.0398H174.077C180.628 66.0237 185.946 60.629 185.93 54.0189C185.922 50.8087 184.671 47.7924 182.409 45.5271C180.166 43.286 177.206 42.0544 174.057 42.0544H174.009C167.463 42.0827 162.148 47.4774 162.164 54.0835C162.172 57.2896 163.412 60.2979 165.658 62.5551C167.9 64.8042 170.876 66.0439 174.045 66.0439L174.049 66.0398ZM174.021 44.3924C179.292 44.3722 183.592 48.6928 183.604 54.0229C183.616 59.3611 179.356 63.6857 174.073 63.6978C168.783 63.7099 164.507 59.4136 164.491 54.0754C164.479 48.7372 168.73 44.4126 174.021 44.3924Z" fill="white"/>
<path d="M174.071 63.6978C179.358 63.6857 183.614 59.3651 183.602 54.0228C183.59 48.6928 179.29 44.3722 174.019 44.3923C168.732 44.4125 164.476 48.7372 164.488 54.0753C164.5 59.4135 168.78 63.7099 174.071 63.6978ZM174.027 46.7344H174.055C175.964 46.7344 177.765 47.4854 179.125 48.8462C180.505 50.2272 181.267 52.0685 181.275 54.0269C181.283 58.0568 178.05 61.3436 174.067 61.3517C172.158 61.4083 170.313 60.6047 168.945 59.2318C167.577 57.8589 166.823 56.0216 166.815 54.0673C166.807 50.0374 170.04 46.7465 174.027 46.7344Z" fill="white"/>
<path d="M47.5099 109.592L40.5081 139.933H-169.3L-153.201 109.592H47.5099Z" stroke="white" stroke-width="0.798445"/>
<path d="M198.623 28.151L205.625 -2.18989H415.433L399.334 28.151H198.623Z" stroke="white" stroke-width="0.798445"/>
<g clip-path="url(#clip1_23545_149412)">
<path d="M119.998 122.465L126.185 116.277L127.953 118.045L119.998 126L112.043 118.045L113.81 116.277L119.998 122.465Z" fill="white"/>
</g>
</g>
<rect x="5.59766" y="4.5" width="228.549" height="130.34" rx="4.88756" stroke="#FFB71B" stroke-width="3"/>
</g>
<defs>
<filter id="filter0_d_23545_149412" x="0.903878" y="0.604666" width="237.938" height="139.728" filterUnits="userSpaceOnUse" color-interpolation-filters="sRGB">
<feFlood flood-opacity="0" result="BackgroundImageFix"/>
<feColorMatrix in="SourceAlpha" type="matrix" values="0 0 0 0 0 0 0 0 0 0 0 0 0 0 0 0 0 0 127 0" result="hardAlpha"/>
<feOffset dy="0.798445"/>
<feGaussianBlur stdDeviation="1.59689"/>
<feColorMatrix type="matrix" values="0 0 0 0 0.0784314 0 0 0 0 0.180392 0 0 0 0 0.321569 0 0 0 0.2 0"/>
<feBlend mode="normal" in2="BackgroundImageFix" result="effect1_dropShadow_23545_149412"/>
<feBlend mode="normal" in="SourceGraphic" in2="effect1_dropShadow_23545_149412" result="shape"/>
</filter>
<clipPath id="clip0_23545_149412">
<rect x="4.09766" y="3" width="231.549" height="133.34" rx="6.38756" fill="white"/>
</clipPath>
<clipPath id="clip1_23545_149412">
<rect width="30" height="30" fill="white" transform="translate(105 106)"/>
</clipPath>
</defs>
</svg>
